<?xml version="1.0" encoding="UTF-8" standalone="no"?>
<svg
   id="eUQaqcwiTMH1"
   viewBox="0 0 1098 170.00001"
   shape-rendering="geometricPrecision"
   text-rendering="geometricPrecision"
   version="1.1"
   sodipodi:docname="outlever-gradient-logo-top1.svg"
   width="1098"
   height="170"
   inkscape:version="1.3 (0e150ed, 2023-07-21)"
   inkscape:export-filename="outlever-gradient-logo-top.png"
   inkscape:export-xdpi="96"
   inkscape:export-ydpi="96"
   xmlns:inkscape="http://www.inkscape.org/namespaces/inkscape"
   xmlns:sodipodi="http://sodipodi.sourceforge.net/DTD/sodipodi-0.dtd"
   xmlns="http://www.w3.org/2000/svg"
   xmlns:svg="http://www.w3.org/2000/svg">
  <sodipodi:namedview
     id="namedview7"
     pagecolor="#ffffff"
     bordercolor="#000000"
     borderopacity="0.25"
     inkscape:showpageshadow="2"
     inkscape:pageopacity="0.0"
     inkscape:pagecheckerboard="0"
     inkscape:deskcolor="#d1d1d1"
     inkscape:zoom="0.95866218"
     inkscape:cx="459.4945"
     inkscape:cy="292.07369"
     inkscape:window-width="1792"
     inkscape:window-height="1067"
     inkscape:window-x="0"
     inkscape:window-y="25"
     inkscape:window-maximized="0"
     inkscape:current-layer="eUQaqcwiTMH1"
     inkscape:export-bgcolor="#ffffff00"
     showguides="true" />
  <defs
     id="defs1" />
  <path
     d="m 879.34286,170 h 85.72856 v -29.38572 h -85.72856 z m 0,-140.614287 h 85.72856 V 0 h -85.72856 z m 0,64.842854 h 80.87142 V 65.328568 H 879.34286 Z M 857,0 v 170 h 33.51429 V 0 Z M 1006.0421,90.828567 1057.0422,170 h 41.0428 L 1042.7136,90.828567 Z M 967.42788,0 v 170 h 34.72852 V 0 Z m 21.12857,29.62857 h 33.75715 q 9.2285,0 15.7856,3.157143 6.8001,2.914285 10.4429,8.742856 3.6429,5.585714 3.6429,13.6 0,8.014285 -3.6429,13.842856 -3.6428,5.585714 -10.4429,8.742856 -6.5571,2.914286 -15.7856,2.914286 h -33.75715 v 27.685713 h 35.94285 q 20.1571,0 34.2428,-6.8 14.0857,-6.799999 21.6143,-18.942856 7.5286,-12.385713 7.5286,-28.414284 0,-16.271428 -7.5286,-28.414284 Q 1072.8278,13.599999 1058.7421,6.7999996 1044.6564,0 1024.4993,0 h -35.94285 z"
     id="path20"
     inkscape:label="ER"
     style="font-size:218.667px;font-family:'.PingFang HK';-inkscape-font-specification:'.PingFang HK';letter-spacing:-17.9px;word-spacing:0px;stroke-width:3.33188;stroke-miterlimit:3;stroke-opacity:0" />
  <path
     d="M 777,104.60307 731.50705,0 H 692 L 777,169.98 862,0 h -39.74649 z"
     id="path19"
     inkscape:label="V"
     style="font-size:218.667px;font-family:'.PingFang HK';-inkscape-font-specification:'.PingFang HK';letter-spacing:-17.9px;word-spacing:0px;stroke-width:3.21531;stroke-miterlimit:3;stroke-opacity:0" />
  <path
     d="m 610.34285,170 h 85.72857 v -29.38572 h -85.72857 z m 0,-140.614287 h 85.72857 V 0 h -85.72857 z m 0,64.842856 h 80.87142 v -28.9 H 610.34285 Z M 588,0 v 170 h 33.51428 V 0 Z"
     id="path18"
     inkscape:label="E"
     style="font-size:218.667px;font-family:'.PingFang HK';-inkscape-font-specification:'.PingFang HK';letter-spacing:-17.9px;word-spacing:0px;stroke-width:3.33188;stroke-miterlimit:3;stroke-opacity:0" />
  <path
     d="M 484,0 V 170 H 586.4857 V 139.64285 H 518.72857 V 0 Z"
     id="path17"
     inkscape:label="L"
     style="font-size:218.667px;font-family:'.PingFang HK';-inkscape-font-specification:'.PingFang HK';letter-spacing:-17.9px;word-spacing:0px;stroke-width:3.33188;stroke-miterlimit:3;stroke-opacity:0" />
  <path
     d="m 300,31.328569 h 45.65719 V 170 h 34.72863 V 31.328569 h 45.90006 V 0 H 300 Z"
     id="path16"
     style="font-size:218.667px;font-family:'.PingFang HK';-inkscape-font-specification:'.PingFang HK';letter-spacing:-17.9px;word-spacing:0px;display:inline;stroke-width:3.33187;stroke-miterlimit:3;stroke-opacity:0"
     inkscape:label="T" />
  <path
     d="m 172,0 v 110.51176 c 0,9.71876 1.56754,18.26186 4.70263,25.62932 3.13508,7.36745 7.52421,13.55924 13.16736,18.57539 5.64316,5.01613 12.30521,8.77823 19.98617,11.2863 7.68095,2.66482 16.0673,3.99723 25.15906,3.99723 8.93499,0 17.24296,-1.33241 24.92392,-3.99723 7.68097,-2.50807 14.34302,-6.27017 19.98617,-11.2863 5.79991,-5.01615 10.26741,-11.20794 13.40249,-18.57539 3.13509,-7.36746 4.70263,-15.91056 4.70263,-25.62932 V 46.678345 0 h -33.62379 v 108.39558 c 0,9.40526 -2.50807,17.00784 -7.52421,22.80775 -4.85937,5.64315 -12.14845,8.46472 -21.86721,8.46472 -9.71876,0 -17.08622,-2.82157 -22.10236,-8.46472 -4.85938,-5.79991 -7.28907,-13.40249 -7.28907,-22.80775 V 0 Z"
     id="path15"
     inkscape:label="U"
     style="font-size:218.667px;font-family:'.PingFang HK';-inkscape-font-specification:'.PingFang HK';letter-spacing:-17.9px;word-spacing:0px;stroke-width:3.22588;stroke-miterlimit:3;stroke-opacity:0"
     sodipodi:nodetypes="cssscsccsscccscscscc" />
  <path
     d="m 34.689189,84.420201 q 0,-15.538883 6.432432,-27.59891 Q 47.554055,44.761263 58.81081,37.803555 70.067567,30.845846 85,30.845846 q 15.16216,0 26.41892,6.957709 11.25675,6.957708 17.45946,19.017736 6.2027,12.060027 6.2027,27.59891 0,15.538881 -6.43244,27.598909 -6.20269,12.06003 -17.45946,19.01774 -11.256748,6.95771 -26.18918,6.95771 -14.932433,0 -26.18919,-6.95771 Q 47.554055,124.07914 41.121621,112.01911 34.689189,99.959082 34.689189,84.420201 Z m -34.6891889,0 q 0,18.321969 6.2027027,34.092769 6.2027032,15.53889 17.6891892,27.13506 11.486486,11.59618 26.878379,18.09004 15.62162,6.26194 34.229729,6.26194 18.60811,0 34,-6.26194 15.62163,-6.49386 26.87838,-18.09004 11.48648,-11.59617 17.68918,-27.13506 Q 170,102.74217 170,84.420201 170,65.866311 163.56756,50.559353 157.36486,35.020472 145.64865,23.656215 134.16216,12.291958 118.77026,6.2619442 103.37837,6.8054199e-6 85,6.8054199e-6 66.851351,6.8054199e-6 51.229729,6.2619442 35.837838,12.291958 24.351352,23.656215 12.864865,35.020472 6.4324325,50.559353 1e-7,65.866311 1e-7,84.420201 Z"
     id="path14"
     inkscape:label="O"
     style="font-size:218.667px;font-family:'.PingFang HK';-inkscape-font-specification:'.PingFang HK';letter-spacing:-17.9px;word-spacing:0px;stroke-width:3.1668;stroke-miterlimit:3;stroke-opacity:0" />
  <rect
     style="opacity:1;fill:#000000;fill-opacity:1;stroke-width:1.61967;stroke-miterlimit:3;stroke-opacity:0"
     id="rect20"
     width="74.4506"
     height="4.717587"
     x="739.823"
     y="165.19133" />
</svg>
