<svg id="eUQaqcwiTMH1" xmlns="http://www.w3.org/2000/svg" xmlns:xlink="http://www.w3.org/1999/xlink" viewBox="0 0 412 100" shape-rendering="geometricPrecision" text-rendering="geometricPrecision"><defs><linearGradient id="eUQaqcwiTMH3-fill" x1="456.080502" y1="845.379757" x2="557.045957" y2="963.152424" spreadMethod="pad" gradientUnits="userSpaceOnUse" gradientTransform="translate(0 0)"><stop id="eUQaqcwiTMH3-fill-0" offset="0%" stop-color="#3d7b5a"/><stop id="eUQaqcwiTMH3-fill-1" offset="100%" stop-color="rgba(0,0,0,0.9)"/></linearGradient><linearGradient id="eUQaqcwiTMH5-fill" x1="-0.017136" y1="0.00357" x2="0.919142" y2="0.939848" spreadMethod="pad" gradientUnits="objectBoundingBox" gradientTransform="translate(0 0)"><stop id="eUQaqcwiTMH5-fill-0" offset="0%" stop-color="#3d7b5a"/><stop id="eUQaqcwiTMH5-fill-1" offset="100%" stop-color="#000"/></linearGradient><linearGradient id="eUQaqcwiTMH6-fill" x1="0.146447" y1="0.146447" x2="0.853553" y2="0.853553" spreadMethod="pad" gradientUnits="objectBoundingBox" gradientTransform="translate(0 0)"><stop id="eUQaqcwiTMH6-fill-0" offset="1%" stop-color="#3d7b5a"/><stop id="eUQaqcwiTMH6-fill-1" offset="100%" stop-color="#000"/></linearGradient><linearGradient id="eUQaqcwiTMH7-fill" x1="-0.166418" y1="-0.002753" x2="0.853553" y2="0.853553" spreadMethod="pad" gradientUnits="objectBoundingBox" gradientTransform="translate(0 0)"><stop id="eUQaqcwiTMH7-fill-0" offset="0%" stop-color="#3d7b5a"/><stop id="eUQaqcwiTMH7-fill-1" offset="100%" stop-color="#000"/></linearGradient><linearGradient id="eUQaqcwiTMH8-fill" x1="-0.332072" y1="0" x2="0.853553" y2="0.853553" spreadMethod="pad" gradientUnits="objectBoundingBox" gradientTransform="translate(0 0)"><stop id="eUQaqcwiTMH8-fill-0" offset="0%" stop-color="#3d7b5a"/><stop id="eUQaqcwiTMH8-fill-1" offset="100%" stop-color="#000"/></linearGradient><linearGradient id="eUQaqcwiTMH9-fill" x1="0.146447" y1="0.146447" x2="0.853553" y2="0.853553" spreadMethod="pad" gradientUnits="objectBoundingBox" gradientTransform="translate(0 0)"><stop id="eUQaqcwiTMH9-fill-0" offset="0%" stop-color="#3d7b5a"/><stop id="eUQaqcwiTMH9-fill-1" offset="100%" stop-color="#000"/></linearGradient></defs><g transform="translate(746.267-151.516)"><path d="M570.71428,909.61255c-.000001,41.419644-33.577256,74.996899-74.9969,74.9969-19.890416.000002-38.966173-7.901433-53.030822-21.96608s-21.966087-33.140404-21.966088-53.03082s7.901438-38.966172,21.966088-53.030819s33.140406-21.966083,53.030822-21.966081c41.419644.000001,74.996899,33.577256,74.9969,74.9969Z" transform="matrix(.474404 0.07308-.072938 0.464308-802.581-243.858)" opacity="0.5" fill="url(#eUQaqcwiTMH3-fill)" fill-rule="evenodd" stroke-width="0.006196" stroke-opacity="0.8"/><g transform="matrix(1.5 0 0 1.5-783.544-1255.14)" opacity="0.6"><path d="M25.003,979.22529q0-6.70278,2.645832-12.08264q2.645832-5.46805,7.320135-8.64305t10.671522-3.175q5.115275,0,9.172218,2.55764q4.145136,2.46944,6.438191,6.35v-26.28193h11.81805v51.15275q0,1.85208.61736,2.64583t2.11667.97014v9.61317q-3.08681.6174-5.02709.6174-3.174994,0-5.291659-1.5875-2.028472-1.58752-2.293055-4.14516l-.176389-2.91041q-2.557637,4.32152-6.967357,6.61457-4.321525,2.2931-9.084023,2.2931t-8.81944-1.8521q-3.968747-1.8521-6.967357-5.1153-2.910415-3.26319-4.586109-7.58471-1.587499-4.40972-1.587499-9.4368Zm36.247898,6.1736v-11.0243q-.881944-2.55763-2.822221-4.5861t-4.321526-3.175q-2.381248-1.23472-4.762497-1.23472-2.734026,0-4.938886,1.14652t-3.880554,3.08681q-1.587499,1.94027-2.469443,4.49791-.793749,2.55764-.793749,5.37986t.881943,5.37986q.970139,2.46944,2.734027,4.32152t4.056942,2.91042Q47.316183,993.16,50.050209,993.16q1.675694,0,3.351387-.52917q1.763888-.61736,3.263193-1.5875q1.587499-1.05833,2.734026-2.46944q1.234722-1.4993,1.852083-3.175Z" transform="translate(-.397431 0)" opacity="0.9" fill="url(#eUQaqcwiTMH5-fill)" fill-rule="evenodd" stroke-width="0.006"/><path d="M134.9812,988.66209q0-4.49792,2.46945-7.84931q2.55763-3.43958,7.05555-5.29166t10.31874-1.85208q2.91042,0,5.90903.44097t5.20347,1.41111v-2.46944q0-4.40972-2.64584-6.79097-2.55763-2.38125-7.67291-2.38125-3.79236,0-7.23194,1.32292t-7.23194,3.88055l-3.79236-7.76111q4.58611-2.99861,9.34861-4.49791q4.85069-1.49931,10.14235-1.49931q9.87778,0,15.34583,4.93889q5.55625,4.93889,5.55625,14.1111v14.72847q0,1.85208.61736,2.64583.70555.79375,2.20486.97014v9.61317q-1.5875.2646-2.91042.441-1.23472.1764-2.11666.1764-3.52778,0-5.37986-1.5875-1.76389-1.58752-2.20486-3.88057l-.26459-2.38125q-2.99861,3.88055-7.49652,5.99722t-9.17222,2.1167q-4.58611,0-8.29027-1.8521-3.61597-1.9403-5.73264-5.20349-2.02847-3.35139-2.02847-7.49652Zm28.75138,2.38124q.97013-1.05833,1.5875-2.11666t.61736-1.94028v-4.6743q-2.11667-.88194-4.58611-1.32292-2.46945-.52916-4.67431-.52916-4.5861,0-7.58471,2.02847-2.91042,1.94028-2.91042,5.20347q0,1.76389.97014,3.35138t2.82222,2.55764t4.40972.97014q2.64583,0,5.20347-.97014q2.55764-1.05833,4.14514-2.55764Z" transform="translate(-10 0)" fill="url(#eUQaqcwiTMH6-fill)" fill-rule="evenodd" stroke-width="0.006"/><path d="M215.06165,1003.2142q-5.29166,0-9.4368-2.3813t-6.52638-6.52637v8.02567h-10.31875v-64.38189h11.81805v26.28193q2.46944-4.14514,6.43819-6.52639q4.05694-2.38125,9.4368-2.38125q4.49792,0,8.20208,1.94028q3.70417,1.85208,6.35,5.20347q2.73402,3.35139,4.14513,7.67291q1.49931,4.32153,1.49931,9.26041t-1.67569,9.26042q-1.5875,4.32152-4.49792,7.67291-2.91041,3.26319-6.87916,5.1153-3.88056,1.7639-8.55486,1.7639ZM211.79846,993.16q2.82222,0,5.11527-1.05833q2.38125-1.14653,4.05695-2.99861q1.76388-1.85208,2.64583-4.32153.97014-2.55763.97014-5.29166q0-3.79236-1.5875-6.96736-1.49931-3.26319-4.23333-5.20347-2.64584-1.94027-6.26181-1.94027-2.55763,0-4.93888,1.23472-2.29306,1.14652-4.14514,3.175-1.76389,2.02847-2.82222,4.5861v11.0243q.52917,1.76389,1.67569,3.175q1.23473,1.41111,2.82222,2.46944q1.5875.97014,3.2632,1.5875q1.76389.52917,3.43958.52917Z" transform="translate(-14 0)" fill="url(#eUQaqcwiTMH7-fill)" fill-rule="evenodd" stroke-width="0.006"/><path d="M244.60669,937.95031h11.81805v49.56525q0,3.175,1.05833,4.32152q1.05833,1.05834,2.91042,1.05834q1.41111,0,2.91041-.35278t2.64583-.88194l1.5875,8.9958q-2.38125,1.1465-5.55625,1.7639t-5.73263.6174q-5.55625,0-8.64305-2.9104-2.99861-2.99865-2.99861-8.4667v-53.71039Z" transform="translate(-17.3333 0)" fill="url(#eUQaqcwiTMH8-fill)" fill-rule="evenodd" stroke-width="0.006"/><path d="M294.08369,1003.2142q-5.55625,0-10.05417-1.8521-4.49791-1.9403-7.67291-5.20349-3.175-3.35139-4.93888-7.58472-1.6757-4.32152-1.6757-9.08402q0-6.61458,2.91042-12.08263q2.99861-5.46806,8.46666-8.73125q5.55625-3.35139,13.05277-3.35139q7.58472,0,12.96458,3.35139q5.37986,3.26319,8.20208,8.73125q2.91041,5.37985,2.91041,11.64166q0,1.05833-.0882,2.20486-.0882,1.05833-.17639,1.76388h-35.71873q.35277,3.52778,2.02847,6.17361q1.76389,2.64583,4.40972,4.05694q2.73402,1.32292,5.82083,1.32292q3.52777,0,6.61458-1.67569q3.175-1.76389,4.32152-4.58611l10.14236,2.82222q-1.67569,3.52778-4.85069,6.2618-3.08681,2.73407-7.32014,4.32157-4.23333,1.4993-9.3486,1.4993Zm-12.08264-27.69308h24.16527q-.35278-3.52777-2.02847-6.08541-1.5875-2.64583-4.23333-4.05694-2.64584-1.49931-5.90903-1.49931-3.175,0-5.82083,1.49931-2.55764,1.41111-4.23333,4.05694-1.5875,2.55764-1.94028,6.08541Z" transform="translate(-19.3333 0)" fill="url(#eUQaqcwiTMH9-fill)" fill-rule="evenodd" stroke-width="0.006"/></g></g></svg>
